<svg width="13" height="14" viewBox="0 0 13 14" fill="none" xmlns="http://www.w3.org/2000/svg">
<path d="M6.032 13.208C5.872 13.208 5.736 13.16 5.624 13.064C5.528 12.952 5.48 12.816 5.48 12.656V7.664H0.56C0.4 7.664 0.264 7.616 0.152 7.52C0.0560001 7.408 0.00800008 7.272 0.00800008 7.112V6.344C0.00800008 6.184 0.0560001 6.056 0.152 5.96C0.264 5.848 0.4 5.792 0.56 5.792H5.48V0.943999C5.48 0.783999 5.528 0.656 5.624 0.56C5.736 0.447999 5.872 0.391999 6.032 0.391999H6.872C7.032 0.391999 7.16 0.447999 7.256 0.56C7.368 0.656 7.424 0.783999 7.424 0.943999V5.792H12.368C12.528 5.792 12.656 5.848 12.752 5.96C12.864 6.056 12.92 6.184 12.92 6.344V7.112C12.92 7.272 12.864 7.408 12.752 7.52C12.656 7.616 12.528 7.664 12.368 7.664H7.424V12.656C7.424 12.816 7.368 12.952 7.256 13.064C7.16 13.16 7.032 13.208 6.872 13.208H6.032Z" fill="#142756"/>
</svg>
